<?xml version="1.0" standalone="no"?>
<!DOCTYPE svg PUBLIC "-//W3C//DTD SVG 20010904//EN"
 "http://www.w3.org/TR/2001/REC-SVG-20010904/DTD/svg10.dtd">
<svg version="1.0" xmlns="http://www.w3.org/2000/svg"
 width="750.000000pt" height="500.000000pt" viewBox="0 0 750.000000 500.000000"
 preserveAspectRatio="xMidYMid meet">

<g transform="translate(0.000000,500.000000) scale(0.100000,-0.100000)"
fill="#000000" stroke="none">
<path d="M0 2500 l0 -2500 3750 0 3750 0 0 2500 0 2500 -3750 0 -3750 0 0
-2500z m1407 2007 c125 -126 173 -193 173 -243 0 -33 -27 -10 -38 32 -11 40
-32 67 -142 178 l-130 131 -124 -126 c-102 -104 -126 -134 -140 -177 -21 -62
-51 -75 -34 -14 6 20 17 51 26 67 15 29 259 285 272 285 3 0 65 -60 137 -133z
m4860 66 c37 -47 63 -96 63 -120 -1 -28 -35 -94 -70 -133 l-30 -35 -45 48
c-77 83 -78 147 -4 231 22 25 44 46 48 46 4 0 21 -17 38 -37z m-2380 -41 c68
-22 128 -58 177 -107 31 -30 42 -35 84 -35 239 0 442 -200 442 -437 0 -49 3
-56 46 -100 157 -164 157 -426 1 -599 -44 -48 -47 -56 -47 -105 0 -164 -102
-319 -257 -391 -52 -25 -84 -33 -147 -36 -80 -5 -82 -5 -132 -51 -172 -157
-426 -157 -598 0 -50 46 -52 46 -132 51 -222 13 -403 204 -404 427 0 50 -3 57
-46 103 -146 156 -157 401 -24 573 23 29 48 56 56 59 10 4 14 22 14 63 1 246
199 443 446 443 38 0 50 5 80 35 111 111 289 154 441 107z m2581 -80 c-9 -117
-43 -155 -154 -168 l-58 -7 31 39 c48 62 65 102 61 146 -4 43 -1 44 77 51 22
2 42 4 44 5 2 1 2 -28 -1 -66z m-364 2 c1 -50 5 -59 73 -153 l18 -24 -53 6
c-110 13 -149 54 -159 169 l-6 59 63 -3 64 -3 0 -51z m-4806 -61 c11 -16 24
-44 31 -64 11 -34 10 -38 -21 -73 l-32 -36 -33 32 c-18 17 -33 39 -33 48 0 21
49 120 60 120 5 0 17 -12 28 -27z m4752 -112 c22 -13 29 -21 18 -21 -10 0 -36
-16 -58 -36 l-40 -36 -45 36 c-25 21 -45 40 -44 44 0 4 21 24 47 46 l46 38 21
-25 c11 -14 36 -34 55 -46z m490 20 l35 -29 -20 -22 c-11 -12 -33 -31 -48 -42
l-29 -21 -28 31 c-15 17 -40 34 -56 38 l-27 7 36 19 c20 10 44 29 53 43 18 28
25 26 84 -24z m-5090 -51 c0 -46 -2 -51 -42 -78 -24 -16 -52 -39 -62 -51 l-20
-22 -18 48 -18 47 38 39 c38 40 101 79 115 70 4 -2 7 -26 7 -53z m-282 26 c82
-52 91 -74 62 -150 l-9 -25 -32 30 c-17 16 -44 37 -60 46 -26 16 -29 23 -29
70 0 62 10 66 68 29z m5022 -23 c0 -5 -23 -25 -51 -45 -41 -30 -60 -38 -96
-38 -41 0 -43 1 -33 20 17 31 55 51 112 60 29 4 56 8 61 9 4 0 7 -2 7 -6z
m162 -8 c36 -6 98 -47 98 -66 0 -5 -20 -9 -43 -9 -44 0 -101 31 -136 73 -12
15 -11 17 15 12 16 -2 46 -7 66 -10z m-160 -139 c-11 -24 -29 -49 -40 -55 -17
-9 -21 -7 -26 14 -8 29 14 85 52 134 l27 36 3 -42 c2 -27 -4 -59 -16 -87z
m129 17 c6 -19 8 -45 5 -59 -6 -23 -8 -23 -30 -9 -31 20 -45 54 -52 123 l-5
57 35 -39 c19 -21 40 -54 47 -73z m-5234 41 c75 -30 152 -128 167 -213 l6 -34
-42 7 c-89 14 -182 95 -212 184 -25 71 -22 83 17 75 17 -3 46 -12 64 -19z
m468 -6 c-21 -99 -74 -169 -160 -209 -111 -53 -130 -33 -74 79 35 71 88 118
163 144 73 25 79 24 71 -14z m4554 -25 c-6 -16 -8 -44 -5 -64 l6 -36 -46 -7
c-83 -11 -84 -11 -84 37 0 71 9 89 39 82 14 -3 40 -1 56 4 45 14 45 13 34 -16z
m308 13 c47 2 53 -8 53 -83 0 -42 -1 -43 -32 -42 -18 1 -46 4 -63 8 -28 6 -29
9 -27 48 2 23 -2 51 -8 63 -11 20 -10 21 12 13 12 -4 42 -7 65 -7z m-5127 -37
c9 -32 8 -49 -1 -71 -12 -29 -13 -30 -27 -12 -17 24 -7 124 13 124 2 0 9 -19
15 -41z m4991 -70 l29 -25 -43 -49 -43 -48 -37 43 c-20 24 -37 48 -37 53 0 5
11 17 24 28 13 10 29 32 36 50 l13 31 14 -28 c8 -16 28 -40 44 -55z m-5467
-275 c20 -19 20 -38 1 -54 -12 -10 -12 -15 2 -36 13 -21 13 -24 0 -24 -8 0
-22 11 -31 25 -9 14 -21 25 -26 25 -6 0 -10 -11 -10 -25 0 -16 -6 -25 -15 -25
-12 0 -15 14 -15 65 l0 65 39 0 c23 0 46 -7 55 -16z m146 -4 c58 -58 -20 -142
-88 -94 -45 31 -14 114 43 114 14 0 34 -9 45 -20z m128 1 c3 -10 -3 -11 -27
-6 -24 5 -31 3 -31 -9 0 -9 6 -16 14 -16 8 0 24 -8 36 -18 43 -35 -7 -78 -64
-56 -30 12 -16 25 19 18 45 -8 49 16 5 33 -35 13 -47 37 -29 59 15 18 70 15
77 -5z m132 10 c0 -6 -17 -11 -37 -13 -47 -4 -55 -26 -11 -30 18 -2 33 -7 33
-13 0 -5 -15 -11 -33 -13 -44 -4 -36 -26 11 -30 55 -5 45 -22 -13 -22 l-50 0
0 65 0 65 50 0 c28 0 50 -4 50 -9z m100 -46 l0 -55 35 0 c19 0 35 -4 35 -10 0
-5 -20 -10 -45 -10 l-45 0 0 65 c0 37 4 65 10 65 6 0 10 -25 10 -55z m190 35
c58 -58 -31 -149 -92 -93 -22 20 -23 70 -1 95 21 24 68 23 93 -2z m134 14 c28
-11 17 -26 -13 -19 -30 6 -61 -14 -61 -40 0 -35 62 -61 74 -30 4 10 -1 15 -14
15 -11 0 -20 5 -20 10 0 6 14 10 30 10 25 0 30 -4 30 -23 0 -31 -18 -47 -54
-47 -40 0 -66 26 -66 66 0 48 46 76 94 58z m154 -10 c15 -10 22 -25 22 -49 0
-58 -69 -86 -110 -45 -58 58 20 142 88 94z m3963 6 c23 -13 25 -37 4 -60 -14
-15 -14 -18 0 -30 8 -7 15 -16 15 -21 0 -17 -22 -9 -42 16 -11 14 -24 25 -29
25 -5 0 -9 -11 -9 -25 0 -14 -4 -25 -10 -25 -6 0 -10 28 -10 65 l0 65 31 0
c17 0 39 -5 50 -10z m151 -7 c22 -20 23 -70 1 -95 -36 -40 -113 -8 -113 47 0
54 71 85 112 48z m126 0 c2 -9 -5 -11 -27 -7 -42 9 -42 -17 -1 -33 35 -13 47
-37 30 -58 -16 -20 -64 -19 -81 1 -11 14 -9 15 23 9 50 -9 59 11 14 30 -27 12
-36 21 -36 39 0 14 6 27 13 30 21 8 60 2 65 -11z m132 7 c0 -5 -16 -10 -35
-10 -24 0 -35 -5 -35 -15 0 -10 10 -15 31 -15 20 0 29 -4 26 -12 -2 -7 -16
-13 -30 -13 -19 1 -27 -4 -27 -17 0 -14 8 -18 35 -18 19 0 35 -5 35 -11 0 -6
-19 -9 -47 -7 l-48 3 -3 49 c-2 27 -1 55 2 62 6 16 96 20 96 4z m100 -45 l0
-55 35 0 c19 0 35 -4 35 -10 0 -5 -20 -10 -45 -10 l-45 0 0 65 c0 37 4 65 10
65 6 0 10 -25 10 -55z m190 35 c40 -40 11 -110 -45 -110 -32 0 -65 33 -65 65
0 32 33 65 65 65 14 0 34 -9 45 -20z m148 2 c3 -9 -3 -11 -22 -6 -32 8 -56
-10 -56 -41 0 -27 22 -48 46 -43 22 4 31 28 10 28 -9 0 -16 5 -16 10 0 6 11
10 25 10 19 0 25 -5 25 -23 0 -31 -18 -47 -52 -47 -59 0 -89 69 -47 111 22 22
79 23 87 1z m151 -8 c12 -15 21 -32 21 -39 0 -27 -41 -65 -70 -65 -29 0 -70
38 -70 65 0 27 41 65 70 65 19 0 36 -9 49 -26z m-5781 -168 c-2 -13 -10 -21
-23 -21 -23 0 -33 34 -14 45 20 13 40 -1 37 -24z m452 3 c0 -26 -28 -36 -46
-17 -14 13 -14 17 1 31 19 20 45 12 45 -14z m72 13 c-24 -4 -26 -22 -2 -30 7
-3 10 0 6 7 -4 6 -2 11 3 11 6 0 11 -7 11 -15 0 -20 -39 -19 -47 1 -7 20 24
47 41 36 6 -4 2 -8 -12 -10z m4704 6 c4 -7 3 -8 -4 -4 -7 4 -12 2 -12 -3 0 -6
5 -11 10 -11 6 0 10 -7 10 -15 0 -8 -8 -15 -17 -15 -14 0 -15 2 -5 9 11 6 10
10 -3 15 -14 5 -15 9 -5 21 15 18 17 18 26 3z m-5324 -20 c-7 -28 -19 -30 -24
-5 -3 16 0 23 12 23 11 0 15 -6 12 -18z m158 2 c0 -27 18 -25 23 3 l4 22 2
-23 c1 -26 -27 -41 -40 -21 -12 19 -11 39 1 39 6 0 10 -9 10 -20z m116 -5 c-1
-24 -16 -37 -16 -14 0 8 -5 8 -15 -1 -13 -11 -15 -8 -15 14 0 21 5 26 24 26
19 0 24 -5 22 -25z m94 15 c-10 -6 -11 -10 -2 -10 6 0 12 -7 12 -15 0 -9 -9
-15 -22 -14 -21 0 -21 1 -4 8 18 7 18 8 3 14 -25 9 -21 27 6 27 18 0 19 -2 7
-10z m78 -33 c12 -3 10 -5 -5 -6 -19 -1 -23 4 -22 27 1 22 2 23 6 5 2 -12 12
-24 21 -26z m276 27 c10 -25 7 -29 -18 -29 -13 0 -23 2 -22 5 2 3 6 13 9 23 8
21 23 22 31 1z m72 5 c4 -8 9 -7 15 2 6 10 9 5 9 -15 0 -24 -2 -27 -15 -16
-11 9 -15 9 -15 1 0 -7 -4 -9 -10 -6 -13 8 -13 45 -1 45 6 0 13 -5 17 -11z
m4163 1 c0 -3 -3 -13 -7 -22 -6 -15 -8 -14 -18 5 -8 19 -7 23 8 23 10 0 18 -3
17 -6z m95 1 c10 -16 -5 -41 -24 -41 -23 0 -34 16 -26 35 6 16 42 20 50 6z
m66 -31 c5 0 11 10 13 23 4 19 4 18 6 -5 1 -22 -4 -28 -19 -28 -15 0 -20 6
-19 28 2 23 2 24 6 5 2 -13 8 -23 13 -23z m108 16 c-2 -18 -6 -22 -14 -15 -8
7 -14 6 -17 -3 -3 -7 -6 -1 -6 15 -1 21 4 27 19 27 15 0 19 -6 18 -24z m176
-18 c7 -5 5 -8 -6 -8 -13 0 -18 7 -17 28 1 21 2 22 6 7 3 -11 10 -23 17 -27z
m96 22 c0 -24 -26 -38 -42 -22 -16 16 -2 42 22 42 13 0 20 -7 20 -20z m78 13
c-19 -5 -25 -33 -7 -33 5 0 7 5 4 10 -3 6 -1 10 4 10 6 0 11 -7 11 -15 0 -20
-36 -19 -44 1 -9 22 1 34 27 33 17 -1 18 -2 5 -6z m99 -15 c9 -20 8 -23 -13
-23 -25 0 -28 4 -18 29 9 22 19 20 31 -6z m66 -8 c-7 -28 -13 -25 -13 6 0 14
4 23 9 20 5 -3 7 -15 4 -26z m33 8 c-3 -13 -5 -25 -5 -28 -1 -3 -5 1 -10 9
-10 16 -4 41 10 41 5 0 7 -10 5 -22z m-5288 -512 c20 -12 13 -85 -14 -147 -44
-99 -13 -120 56 -38 23 27 60 62 82 77 47 31 40 36 109 -81 l41 -69 -22 -23
c-23 -25 -88 -45 -143 -45 -19 0 -40 -7 -47 -15 -19 -23 -4 -45 29 -45 42 0
156 -37 172 -56 11 -14 10 -21 -6 -48 -10 -17 -31 -55 -47 -83 -16 -29 -36
-53 -44 -53 -31 0 -75 32 -115 85 -39 52 -70 68 -84 45 -3 -6 5 -39 19 -74 28
-69 34 -144 14 -151 -7 -2 -53 -6 -101 -8 -84 -5 -89 -4 -99 18 -12 26 2 107
28 161 9 19 14 41 10 49 -11 29 -41 14 -79 -39 -40 -56 -94 -93 -120 -83 -8 3
-28 29 -44 59 -16 29 -35 63 -43 74 -28 44 16 77 129 98 60 11 66 14 66 37 0
22 -4 24 -66 31 -115 11 -160 50 -121 106 11 15 30 47 42 72 12 25 27 48 32
51 19 12 49 -4 105 -57 85 -82 96 -74 67 49 -13 50 -14 74 -7 91 10 21 16 22
100 21 49 -1 94 -4 101 -9z m4889 -70 c29 -44 53 -119 53 -162 0 -29 -8 -44
-42 -77 l-43 -42 -43 45 c-42 43 -44 47 -38 92 8 70 60 178 85 178 3 0 16 -15
28 -34z m-154 -217 c44 -29 97 -82 97 -98 0 -4 -8 -30 -18 -59 l-19 -52 -34
36 c-19 20 -47 43 -64 51 -41 21 -45 29 -45 96 0 69 12 73 83 26z m327 -33 l0
-64 -42 -25 c-24 -14 -56 -39 -72 -56 l-29 -31 -19 56 c-19 55 -19 55 3 85 25
35 116 99 141 99 15 0 18 -10 18 -64z m-436 -92 c95 -33 193 -152 211 -258 l6
-38 -38 6 c-66 12 -160 64 -198 110 -37 46 -69 111 -79 164 -5 30 -4 32 22 32
16 0 50 -7 76 -16z m561 -16 c-11 -58 -64 -155 -102 -189 -42 -37 -121 -74
-175 -84 l-38 -7 6 33 c10 56 49 134 90 179 44 49 142 100 192 100 33 0 33 -1
27 -32z m-306 -67 c8 -37 6 -51 -8 -79 l-18 -35 -11 33 c-15 41 -15 68 -1 109
14 39 25 31 38 -28z m-2768 -227 c16 -8 43 -34 60 -57 28 -39 30 -47 27 -108
-4 -77 -33 -125 -91 -153 -52 -24 -136 -21 -178 7 -99 66 -115 188 -36 273 57
62 144 77 218 38z m-851 -4 c0 -18 -7 -20 -65 -20 l-65 0 0 -50 0 -50 65 0
c58 0 65 -2 65 -20 0 -18 -7 -20 -65 -20 l-64 0 -3 -82 c-2 -66 -6 -83 -18
-83 -13 0 -15 27 -18 173 l-2 172 85 0 c78 0 85 -2 85 -20z m258 -138 l3 -152
65 0 c57 0 65 -2 62 -17 -3 -15 -16 -18 -86 -21 l-82 -3 0 176 c0 163 1 176
18 173 15 -3 17 -20 20 -156z m962 38 c18 -67 35 -118 38 -115 3 3 25 54 48
112 23 59 45 108 50 110 5 2 29 -48 54 -111 24 -63 48 -110 51 -104 4 6 19 58
35 115 26 94 44 127 60 110 7 -7 -86 -337 -95 -337 -4 0 -26 52 -51 116 -24
63 -47 117 -50 119 -4 2 -28 -50 -55 -115 -26 -66 -51 -120 -54 -120 -3 0 -26
71 -50 158 -24 86 -46 163 -49 170 -2 7 4 12 15 12 17 0 25 -19 53 -120z m760
100 c0 -18 -7 -20 -80 -20 l-80 0 0 -50 0 -50 80 0 c73 0 80 -2 80 -20 0 -18
-7 -20 -80 -20 l-80 0 0 -65 0 -65 80 0 c74 0 80 -2 80 -20 0 -20 -5 -21 -97
-18 l-98 3 -3 160 c-1 87 0 165 2 172 4 9 32 13 101 13 88 0 95 -1 95 -20z
m407 -12 c52 -52 22 -138 -53 -153 l-34 -6 55 -71 c58 -74 64 -88 40 -88 -8 0
-42 36 -76 80 -34 44 -66 80 -70 80 -5 0 -9 -35 -11 -77 -3 -65 -6 -78 -20
-81 -17 -3 -18 10 -18 174 l0 177 81 -5 c69 -4 84 -8 106 -30z m-4209 -144
c26 -18 28 -36 7 -54 -14 -11 -14 -15 0 -36 14 -21 14 -24 1 -24 -9 0 -20 9
-26 20 -6 11 -17 20 -25 20 -8 0 -15 -9 -15 -20 0 -11 -7 -20 -15 -20 -12 0
-15 13 -15 58 0 32 3 62 7 65 12 12 58 7 81 -9z m152 -4 c24 -24 26 -67 3 -92
-20 -22 -70 -23 -95 -1 -40 36 -8 113 47 113 14 0 34 -9 45 -20z m114 14 c26
-10 18 -25 -10 -22 -35 4 -43 -19 -10 -28 37 -9 50 -28 36 -53 -11 -21 -43
-27 -74 -15 -29 11 -16 23 19 17 28 -4 35 -2 35 11 0 9 -8 16 -19 16 -20 0
-51 24 -51 40 0 13 30 40 45 40 7 0 20 -3 29 -6z m141 -9 c0 -5 -17 -11 -38
-13 -46 -4 -45 -26 1 -30 43 -4 41 -22 -3 -22 -24 0 -35 -5 -35 -15 0 -11 11
-15 40 -15 22 0 40 -4 40 -10 0 -5 -22 -10 -50 -10 l-50 0 0 66 0 65 48 -3
c26 -2 47 -7 47 -13z m105 -40 l0 -55 35 0 c19 0 35 -4 35 -10 0 -5 -20 -10
-45 -10 l-45 0 0 65 c0 37 4 65 10 65 6 0 10 -25 10 -55z m185 30 c29 -28 31
-51 9 -83 -27 -38 -111 -23 -115 21 -3 32 4 54 23 70 28 24 55 21 83 -8z m139
19 c28 -11 17 -26 -13 -19 -24 5 -33 2 -46 -19 -13 -19 -14 -29 -5 -45 13 -25
60 -29 60 -6 0 8 -7 15 -15 15 -8 0 -15 5 -15 10 0 6 14 10 30 10 26 0 30 -3
30 -29 0 -43 -64 -58 -102 -24 -52 47 8 133 76 107z m156 -14 c42 -42 14 -110
-46 -110 -58 0 -83 63 -42 107 26 28 61 30 88 3z m3961 10 c22 -12 25 -44 5
-62 -11 -11 -11 -16 1 -35 13 -19 13 -23 2 -23 -8 0 -20 9 -27 20 -7 11 -19
20 -27 20 -8 0 -15 -9 -15 -20 0 -11 -4 -20 -10 -20 -6 0 -10 28 -10 65 l0 65
31 0 c17 0 39 -5 50 -10z m147 -6 c27 -18 30 -69 5 -96 -23 -26 -78 -24 -97 4
-23 33 -19 64 10 87 32 25 52 26 82 5z m116 10 c26 -10 18 -25 -10 -22 -38 4
-41 -18 -4 -30 16 -6 33 -18 36 -27 13 -33 -35 -56 -80 -39 -26 10 -8 24 23
18 43 -9 47 13 6 30 -62 26 -34 94 29 70z m141 -9 c0 -5 -15 -11 -32 -13 -43
-4 -45 -32 -3 -32 17 0 30 -4 30 -10 0 -5 -13 -10 -30 -10 -20 0 -30 -5 -30
-15 0 -10 11 -15 35 -15 19 0 35 -4 35 -10 0 -5 -22 -10 -50 -10 l-50 0 0 58
c0 32 3 62 7 66 11 10 88 3 88 -9z m105 -40 l0 -55 35 0 c19 0 35 -4 35 -10 0
-5 -20 -10 -45 -10 l-45 0 0 65 c0 37 4 65 10 65 6 0 10 -25 10 -55z m198 28
c31 -43 1 -103 -51 -103 -62 0 -90 67 -46 111 24 24 75 20 97 -8z m126 21 c25
-10 19 -27 -7 -20 -35 8 -59 -14 -55 -49 3 -26 7 -30 32 -30 16 0 31 6 34 13
2 6 -3 12 -12 12 -9 0 -16 5 -16 10 0 6 11 10 25 10 21 0 25 -5 25 -29 0 -31
-14 -41 -60 -41 -57 0 -80 73 -34 109 28 22 42 25 68 15z m147 -5 c41 -21 44
-86 5 -111 -21 -14 -66 -8 -86 12 -27 27 -25 56 5 85 26 27 46 31 76 14z
m-5857 -184 c-4 -11 -8 -22 -10 -24 -6 -6 -11 1 -18 24 -5 16 -1 21 14 21 15
0 19 -5 14 -21z m94 -3 c3 -16 -2 -22 -17 -22 -24 0 -35 15 -27 36 9 23 40 13
44 -14z m62 8 c0 -27 18 -25 23 3 4 19 4 18 6 -5 1 -21 -4 -28 -18 -28 -10 0
-22 7 -25 16 -9 23 -7 34 4 34 6 0 10 -9 10 -20z m116 -6 c1 -17 -4 -21 -22
-20 -18 1 -24 7 -24 24 0 19 5 23 23 20 14 -2 22 -10 23 -24z m90 17 c-18 -7
-18 -8 -3 -14 25 -9 21 -27 -5 -26 -21 0 -21 1 -4 8 18 7 18 8 2 14 -21 8 -12
27 12 26 14 0 14 -2 -2 -8z m82 -34 c12 -3 10 -5 -5 -6 -19 -1 -23 4 -22 27 1
22 2 23 6 5 2 -12 12 -24 21 -26z m97 18 c0 -13 -8 -21 -22 -23 -17 -3 -23 2
-23 16 0 10 3 22 7 26 13 13 38 1 38 -19z m77 14 c-22 -8 -22 -29 -1 -29 6 0
7 5 4 10 -3 6 -1 10 4 10 6 0 11 -7 11 -15 0 -17 -35 -21 -45 -5 -12 19 4 40
27 39 l23 0 -23 -10z m98 2 c0 -5 2 -15 5 -23 3 -8 -3 -13 -19 -13 -15 0 -22
5 -19 12 3 7 9 10 14 7 5 -3 6 2 3 10 -3 9 -1 16 5 16 6 0 11 -4 11 -9z m93 1
c3 7 6 0 6 -16 1 -23 -2 -26 -13 -17 -11 9 -15 9 -19 -1 -7 -21 -17 -4 -10 20
4 17 9 20 18 12 9 -8 15 -7 18 2z m4140 0 c2 7 6 11 9 8 3 -3 -1 -15 -7 -27
l-12 -23 -12 27 c-10 23 -10 25 2 14 12 -9 16 -9 20 1z m101 -8 c8 -21 -1 -34
-24 -34 -22 0 -34 15 -26 35 7 20 42 19 50 -1z m66 -24 c5 0 11 10 13 23 4 19
4 18 6 -5 1 -22 -4 -28 -19 -28 -15 0 -20 6 -19 28 2 23 2 24 6 5 2 -13 8 -23
13 -23z m108 16 c-2 -18 -6 -22 -14 -15 -8 7 -14 6 -17 -3 -3 -7 -6 -1 -6 15
-1 21 4 27 19 27 15 0 19 -6 18 -24z m92 14 c-10 -6 -11 -10 -2 -10 6 0 12 -7
12 -15 0 -8 -8 -15 -17 -15 -14 0 -15 2 -5 9 11 7 10 9 -3 15 -20 7 -10 26 13
26 15 0 15 -2 2 -10z m84 -32 c7 -5 5 -8 -6 -8 -19 0 -28 18 -19 40 4 12 6 10
9 -5 3 -11 9 -23 16 -27z m96 17 c0 -18 -5 -25 -19 -25 -11 0 -23 5 -26 10
-11 18 3 40 25 40 15 0 20 -7 20 -25z m78 18 c-19 -5 -25 -33 -7 -33 5 0 7 5
3 11 -4 7 -2 10 5 8 7 -3 12 -9 12 -14 0 -15 -33 -19 -41 -4 -13 19 0 39 24
38 16 -1 17 -2 4 -6z m100 -17 c10 -22 8 -24 -14 -22 -25 1 -28 5 -18 30 9 23
19 20 32 -8z m65 -6 c-7 -28 -13 -25 -13 6 0 14 4 23 9 20 5 -3 7 -15 4 -26z
m33 8 c-3 -22 -22 -29 -20 -8 3 25 5 30 14 30 5 0 8 -10 6 -22z m-3448 -154
c32 -22 30 -71 -3 -86 -60 -27 -107 49 -53 86 12 9 25 16 28 16 3 0 16 -7 28
-16z m492 -5 c0 -4 -7 -6 -15 -3 -22 9 -18 -6 7 -33 20 -22 21 -25 6 -40 -18
-17 -48 -12 -48 9 0 9 3 9 12 0 32 -32 38 1 7 35 -18 18 -20 25 -10 37 12 15
41 11 41 -5z m300 1 c24 -24 25 -47 3 -72 -23 -26 -59 -23 -79 7 -19 29 -11
63 19 75 32 13 35 12 57 -10z m186 5 c18 -13 16 -14 -16 -9 -26 4 -40 1 -49
-10 -28 -34 21 -83 55 -55 14 12 14 14 -3 20 -16 7 -15 8 5 8 24 1 29 -18 10
-37 -17 -17 -54 -15 -72 4 -23 22 -20 60 6 78 28 20 39 20 64 1z m-1180 -12
c12 -17 13 -17 19 0 4 9 12 17 17 17 6 0 3 -11 -6 -25 -9 -13 -17 -37 -17 -52
l-2 -28 -4 29 c-3 16 -12 40 -20 53 -18 27 -7 32 13 6z m326 -25 c4 -61 31
-59 39 2 l7 45 -2 -50 c-1 -44 -4 -50 -24 -53 -12 -2 -24 3 -26 10 -10 32 -14
88 -6 88 5 0 10 -19 12 -42z m198 24 c0 -10 -5 -23 -12 -30 -8 -8 -8 -15 2
-27 7 -8 11 -18 8 -21 -3 -2 -14 8 -24 23 l-18 28 -7 -30 c-5 -24 -7 -20 -8
23 -1 51 -1 52 29 52 22 0 30 -5 30 -18z m295 -73 c17 -7 16 -8 -7 -8 -27 -1
-28 0 -26 52 l1 52 6 -44 c4 -31 12 -46 26 -52z m525 51 c20 -40 28 -80 9 -47
-13 22 -55 22 -63 1 -4 -9 -9 -15 -12 -12 -4 5 36 98 43 98 1 0 12 -18 23 -40z
m173 11 c3 26 4 22 5 -16 l1 -50 -29 33 -30 32 0 -30 c0 -16 -4 -30 -10 -30
-5 0 -10 21 -10 47 l0 47 34 -33 35 -34 4 34z m-3122 -387 c14 -7 31 -20 38
-28 8 -9 29 -16 48 -16 73 0 142 -66 151 -145 2 -25 8 -45 11 -45 4 0 17 -17
29 -39 36 -64 28 -121 -28 -211 -5 -8 -12 -33 -15 -55 -9 -56 -75 -120 -134
-130 -24 -4 -59 -18 -77 -30 -65 -44 -133 -44 -196 -1 -19 13 -52 26 -74 30
-77 14 -144 84 -144 151 0 15 -12 42 -26 61 -28 36 -41 103 -30 148 3 13 17
37 30 53 13 16 26 47 29 72 10 75 77 141 146 141 25 0 43 8 59 25 40 41 121
50 183 19z m1718 -14 c35 -26 111 -125 123 -161 2 -7 18 -7 48 0 88 20 96 18
121 -46 34 -87 33 -209 -3 -285 -37 -80 -107 -151 -187 -191 -60 -29 -74 -32
-156 -31 -75 0 -99 4 -147 26 -192 88 -278 321 -186 501 20 39 20 40 66 34 26
-4 57 -9 69 -13 18 -5 25 1 44 38 35 70 121 158 154 158 7 0 31 -14 54 -30z
m1567 -28 c-22 -5 -30 3 -21 18 5 8 11 7 22 -2 15 -12 14 -13 -1 -16z m1651 7
c101 -37 203 -163 203 -252 0 -34 -23 -12 -35 35 -42 165 -243 258 -400 184
-82 -38 -133 -98 -160 -190 -12 -40 -35 -61 -35 -32 0 44 46 134 94 182 91 90
213 117 333 73z m-1675 -35 c21 -15 41 -38 44 -51 8 -30 -3 -83 -21 -107 -14
-18 -15 -18 -42 -1 -38 24 -63 56 -63 82 0 25 29 103 38 103 3 0 23 -12 44
-26z m98 -16 c26 -58 25 -72 -11 -110 -23 -25 -29 -28 -25 -13 18 69 18 76 -2
110 -20 32 -20 35 -4 44 9 6 18 11 20 11 2 0 12 -19 22 -42z m-252 -68 c30 0
72 -46 72 -77 l0 -25 -35 31 c-27 24 -45 31 -75 31 -32 0 -40 4 -40 18 0 26
11 34 35 28 11 -3 30 -6 43 -6z m414 -30 c-7 -79 -28 -101 -114 -116 -35 -6
-38 -4 -38 17 0 38 19 96 35 109 18 15 72 29 100 27 17 -2 19 -8 17 -37z
m-514 -11 c-2 -6 -8 -10 -13 -10 -5 0 -11 4 -13 10 -2 6 4 11 13 11 9 0 15 -5
13 -11z m566 -4 c-4 -8 -10 -15 -15 -15 -5 0 -9 7 -9 15 0 8 7 15 15 15 9 0
12 -6 9 -15z m1291 -48 l20 -37 -30 -24 -29 -23 -28 20 c-26 19 -27 21 -11 51
34 67 47 70 78 13z m-1723 -7 c21 -23 38 -44 38 -49 0 -13 -70 -41 -105 -41
-27 0 -40 8 -64 37 -17 21 -31 43 -31 49 0 14 65 43 99 43 16 1 38 -13 63 -39z
m186 -62 c-31 -24 -38 -23 -38 9 0 18 10 35 28 49 l27 22 3 -31 c3 -23 -2 -35
-20 -49z m236 76 c24 -9 19 -29 -18 -68 -34 -37 -62 -44 -114 -29 -21 5 -18 8
24 22 34 11 55 26 69 48 23 37 19 35 39 27z m-319 -20 c17 -11 25 -26 25 -45
0 -33 -6 -35 -38 -13 -14 10 -22 25 -22 45 0 34 2 35 35 13z m1478 -40 c44
-22 115 -92 137 -134 18 -35 18 -35 -10 -83 l-27 -47 -19 42 c-10 24 -45 68
-77 100 -57 55 -59 58 -52 97 4 23 9 41 11 41 3 0 19 -7 37 -16z m251 -6 c11
-43 6 -70 -16 -89 -48 -41 -54 -41 -81 0 -29 44 -27 48 43 90 44 26 46 26 54
-1z m-1739 -42 c18 -13 17 -14 -11 -29 -28 -14 -33 -14 -57 2 l-27 18 22 11
c32 15 51 14 73 -2z m163 0 l24 -13 -31 -13 c-26 -10 -37 -10 -59 -1 -26 12
-26 13 -7 27 23 17 43 17 73 0z m1206 -36 c101 -38 183 -137 202 -242 7 -43 7
-44 -66 -22 -72 21 -132 64 -171 121 -29 42 -59 118 -59 150 0 19 31 16 94 -7z
m532 -21 c-19 -122 -132 -232 -259 -254 l-39 -6 7 33 c22 113 107 214 208 249
82 29 91 27 83 -22z m-2011 22 c17 -7 14 -10 -22 -20 -37 -10 -75 -42 -85 -72
-5 -14 -38 0 -38 16 0 8 15 30 34 49 34 37 66 44 111 27z m420 -28 c19 -20 35
-42 35 -48 0 -15 -70 -45 -104 -45 -22 0 -96 68 -96 88 0 14 63 41 97 41 24 1
41 -8 68 -36z m-275 -1 c0 -20 -9 -35 -30 -50 l-30 -23 0 34 c0 25 7 39 23 50
31 22 37 21 37 -11z m55 12 c19 -12 25 -25 25 -51 l0 -34 -30 21 c-22 15 -30
30 -30 51 0 34 2 35 35 13z m-141 -22 c10 -17 -15 -108 -34 -124 -21 -17 -106
-35 -116 -25 -10 10 8 98 25 118 13 16 48 28 113 38 4 1 9 -2 12 -7z m277
-103 c13 -1 32 -1 42 0 12 2 17 -5 17 -23 0 -29 -13 -32 -73 -15 -40 11 -61
35 -73 84 l-7 30 35 -37 c20 -22 46 -38 59 -39z m-129 21 c20 -17 40 -39 43
-50 8 -25 -22 -120 -39 -120 -6 0 -28 14 -49 31 -31 26 -37 36 -37 70 0 39 23
99 38 99 4 0 24 -14 44 -30z m-102 -24 c-15 -41 -12 -70 10 -99 20 -26 20 -26
1 -36 -28 -15 -27 -16 -45 29 -22 55 -20 73 10 110 31 36 39 34 24 -4z m-220
3 c0 -5 -7 -9 -15 -9 -15 0 -20 12 -9 23 8 8 24 -1 24 -14z m559 -8 c-15 -5
-22 6 -14 19 6 9 10 9 16 -1 5 -8 4 -15 -2 -18z m-278 -156 c-1 -15 -24 -12
-29 3 -3 9 2 13 12 10 10 -1 17 -7 17 -13z m-3856 -165 c-3 -5 -17 -10 -31
-10 -17 0 -24 -5 -24 -20 0 -16 7 -20 30 -20 17 0 30 -4 30 -10 0 -5 -13 -10
-30 -10 -28 0 -30 -3 -30 -36 0 -21 -4 -33 -10 -29 -11 7 -14 128 -3 138 11
11 75 8 68 -3z m115 -55 c0 -63 1 -65 25 -65 14 0 25 -4 25 -10 0 -5 -16 -10
-35 -10 l-35 0 0 75 c0 43 4 75 10 75 6 0 10 -28 10 -65z m271 46 c17 -13 23
-29 23 -56 0 -46 -31 -75 -79 -75 -38 0 -75 37 -75 75 0 12 9 34 21 49 25 32
75 35 110 7z m144 -31 c4 -22 10 -40 15 -40 4 0 16 21 27 47 l19 47 20 -54 21
-54 12 39 c7 22 15 46 17 54 2 8 7 11 10 9 6 -7 -28 -138 -36 -138 -3 0 -12
18 -20 40 -8 22 -19 41 -24 42 -5 2 -16 -16 -25 -39 -8 -24 -18 -43 -21 -43
-5 0 -40 112 -40 130 0 27 19 -4 25 -40z m325 40 c0 -5 -13 -10 -30 -10 -23 0
-30 -4 -30 -20 0 -16 7 -20 30 -20 17 0 30 -4 30 -10 0 -5 -13 -10 -30 -10
-25 0 -30 -4 -30 -25 0 -21 5 -25 30 -25 17 0 30 -4 30 -10 0 -5 -18 -10 -40
-10 l-40 0 0 75 0 75 40 0 c22 0 40 -4 40 -10z m178 -2 c18 -18 14 -45 -10
-62 -20 -14 -20 -17 -6 -33 23 -27 30 -43 20 -43 -5 0 -20 16 -33 35 -13 19
-27 35 -31 35 -4 0 -9 -17 -11 -37 -2 -21 -4 -3 -5 40 l-2 77 33 0 c18 0 38
-5 45 -12z m712 2 c0 -5 -13 -10 -30 -10 -23 0 -30 -4 -30 -20 0 -16 7 -20 30
-20 17 0 30 -4 30 -10 0 -5 -13 -10 -29 -10 -27 0 -30 -4 -34 -37 -2 -21 -4
-3 -5 40 l-2 77 35 0 c19 0 35 -4 35 -10z m140 -120 c17 0 30 -5 30 -11 0 -6
-16 -9 -37 -7 l-38 3 -3 59 c-2 32 0 66 5 75 5 10 9 -9 11 -51 3 -68 3 -68 32
-68z m249 104 c12 -15 21 -38 21 -51 0 -34 -42 -73 -80 -73 -38 0 -80 39 -80
73 0 42 36 77 80 77 30 0 43 -6 59 -26z m141 -30 l13 -47 21 54 20 54 20 -48
c11 -26 22 -47 26 -47 3 0 11 21 18 46 7 26 15 44 19 41 7 -8 -27 -137 -37
-137 -4 0 -13 18 -20 41 -8 22 -17 42 -21 45 -4 2 -15 -16 -25 -41 -9 -25 -20
-45 -23 -45 -6 0 -41 116 -41 135 0 21 19 -12 30 -51z m325 46 c-3 -5 -19 -10
-36 -10 -22 0 -29 -5 -29 -20 0 -16 7 -20 36 -20 21 0 33 -4 29 -10 -3 -5 -19
-10 -36 -10 -24 0 -29 -4 -29 -25 0 -21 5 -25 29 -25 17 0 33 -4 36 -10 4 -6
-12 -10 -39 -10 l-46 0 0 75 0 75 46 0 c27 0 43 -4 39 -10z m169 4 c24 -9 20
-59 -5 -70 l-20 -9 21 -28 c12 -16 19 -31 16 -34 -4 -4 -13 2 -20 13 -46 62
-45 62 -46 22 0 -21 -4 -38 -10 -38 -6 0 -10 32 -10 75 l0 75 29 0 c16 0 36
-3 45 -6z m616 -9 c14 -9 12 -49 -2 -63 -9 -9 -9 -15 0 -24 16 -16 15 -28 -1
-28 -7 0 -18 9 -25 20 -7 11 -19 20 -27 20 -8 0 -15 -9 -15 -20 0 -11 -4 -20
-10 -20 -15 0 -13 117 3 123 15 5 64 0 77 -8z m145 -10 c30 -29 32 -58 5 -85
-38 -38 -103 -21 -115 32 -5 21 -1 33 19 52 32 33 60 33 91 1z m109 19 c26
-10 18 -25 -10 -22 -39 4 -40 -16 -2 -33 25 -10 33 -20 33 -39 0 -22 -4 -25
-39 -25 -22 0 -41 5 -43 12 -3 8 6 10 31 6 47 -7 48 12 1 31 -39 17 -47 48
-17 65 20 12 25 13 46 5z m144 -11 c2 -9 -8 -13 -32 -13 -25 0 -36 -4 -36 -15
0 -10 10 -15 30 -15 17 0 30 -4 30 -10 0 -5 -13 -10 -30 -10 -20 0 -30 -5 -30
-15 0 -10 11 -15 35 -15 19 0 35 -4 35 -10 0 -5 -20 -10 -45 -10 l-45 0 0 58
c0 32 3 62 7 66 12 11 76 2 81 -11z m112 -44 c0 -48 1 -49 30 -49 17 0 30 -4
30 -10 0 -5 -20 -10 -45 -10 l-45 0 0 58 c0 32 3 62 6 65 15 14 24 -7 24 -54z
m188 34 c32 -43 1 -103 -54 -103 -62 0 -86 72 -37 110 30 24 69 20 91 -7z
m133 16 c27 -14 14 -31 -14 -20 -14 5 -30 5 -40 0 -20 -11 -23 -49 -5 -67 17
-17 58 -15 58 3 0 8 -7 15 -15 15 -8 0 -15 5 -15 10 0 6 12 10 26 10 23 0 25
-3 22 -32 -3 -31 -6 -33 -44 -36 -48 -4 -67 14 -67 60 0 20 8 38 22 50 26 21
44 23 72 7z m154 -14 c29 -28 31 -51 9 -83 -27 -38 -111 -23 -115 21 -3 32 4
54 23 70 28 24 55 21 83 -8z m549 15 c29 -11 37 -56 11 -66 -12 -5 -12 -9 2
-30 12 -19 13 -24 2 -24 -8 0 -20 9 -27 20 -7 11 -19 20 -27 20 -8 0 -15 -9
-15 -20 0 -11 -4 -20 -10 -20 -6 0 -10 28 -10 65 0 62 1 65 24 65 14 0 36 -4
50 -10z m154 -6 c27 -18 30 -69 5 -96 -23 -26 -78 -24 -97 4 -22 32 -20 55 9
83 28 29 51 31 83 9z m116 10 c26 -10 18 -25 -10 -22 -38 4 -41 -18 -4 -30 16
-6 33 -18 36 -27 13 -33 -35 -56 -80 -39 -26 10 -8 24 23 18 43 -9 47 13 6 30
-39 17 -47 48 -17 65 20 12 25 13 46 5z m141 -9 c0 -5 -15 -11 -32 -13 -43 -4
-45 -32 -3 -32 17 0 30 -4 30 -10 0 -5 -13 -10 -30 -10 -20 0 -30 -5 -30 -15
0 -10 11 -15 35 -15 19 0 35 -4 35 -10 0 -5 -22 -10 -50 -10 l-50 0 0 58 c0
32 3 62 7 66 11 10 88 3 88 -9z m140 -95 c19 0 35 -4 35 -10 0 -5 -20 -10 -45
-10 l-45 0 0 58 c0 76 14 90 18 18 l3 -56 34 0z m138 99 c28 -15 37 -28 37
-58 0 -34 -28 -61 -63 -61 -38 0 -67 25 -67 59 0 31 8 44 35 59 25 14 32 15
58 1z m151 5 c25 -10 19 -27 -7 -20 -35 8 -59 -14 -55 -49 3 -26 7 -30 32 -30
16 0 31 6 34 13 2 6 -3 12 -12 12 -9 0 -16 5 -16 10 0 6 11 10 25 10 21 0 25
-5 25 -29 0 -31 -14 -41 -60 -41 -31 0 -60 30 -60 63 0 21 43 67 64 67 8 0 21
-3 30 -6z m157 -12 c28 -24 31 -79 4 -98 -30 -22 -81 -18 -99 8 -22 32 -20 55
9 83 29 30 55 32 86 7z m-2464 -160 c12 10 12 7 1 -16 -7 -18 -14 -23 -16 -15
-3 8 -9 21 -15 29 -9 12 -9 13 3 3 10 -10 17 -10 27 -1z m100 -8 c3 -8 -1 -22
-9 -30 -13 -14 -17 -14 -31 1 -9 8 -14 22 -11 30 8 20 43 19 51 -1z m69 -24
c8 0 15 10 15 23 1 17 2 18 6 4 6 -23 -14 -48 -33 -40 -8 3 -13 17 -13 32 2
23 2 24 6 4 2 -13 11 -23 19 -23z m104 17 c0 -16 -6 -23 -20 -23 -14 0 -20 7
-20 23 0 16 6 23 20 23 14 0 20 -7 20 -23z m92 14 c-11 -7 -11 -9 2 -14 24 -9
19 -27 -6 -27 -19 0 -20 2 -8 10 10 6 11 10 3 10 -7 0 -13 7 -13 15 0 8 8 15
18 15 13 0 14 -2 4 -9z m82 -33 c7 -5 5 -8 -6 -8 -13 0 -18 7 -17 28 1 21 2
22 6 7 3 -11 10 -23 17 -27z m100 26 c8 -21 -1 -34 -24 -34 -22 0 -34 15 -26
35 7 20 42 19 50 -1z m74 9 c-22 -6 -24 -33 -2 -33 9 0 12 5 8 12 -4 7 -3 8 4
4 20 -12 13 -26 -13 -26 -18 0 -25 5 -25 18 0 23 9 32 29 31 13 -1 13 -2 -1
-6z m100 -18 c9 -17 7 -20 -14 -20 -28 0 -28 0 -13 27 12 22 12 22 27 -7z m75
-4 c-4 -4 -11 -10 -15 -15 -5 -5 -8 3 -8 19 0 24 2 26 15 15 9 -7 12 -16 8
-19z m23 -19 c-11 -10 -15 4 -8 28 l7 25 3 -23 c2 -13 1 -26 -2 -30z m727 40
c2 7 6 11 9 8 3 -3 -1 -15 -7 -27 l-12 -23 -12 27 c-10 23 -10 25 2 14 12 -9
16 -9 20 1z m101 -8 c8 -21 -1 -34 -24 -34 -22 0 -34 15 -26 35 7 20 42 19 50
-1z m66 -24 c5 0 11 10 13 23 4 19 4 18 6 -5 1 -22 -4 -28 -19 -28 -15 0 -20
6 -19 28 2 23 2 24 6 5 2 -13 8 -23 13 -23z m108 17 c-1 -14 -8 -23 -20 -23
-12 0 -18 8 -18 23 0 16 6 23 20 23 14 0 19 -6 18 -23z m93 14 c-9 -6 -10 -11
-2 -15 17 -11 13 -26 -6 -26 -14 0 -15 2 -5 9 11 7 10 9 -3 15 -20 7 -10 26
13 26 13 0 14 -2 3 -9z m83 -33 c7 -5 5 -8 -6 -8 -13 0 -18 7 -17 28 1 21 2
22 6 7 3 -11 10 -23 17 -27z m94 14 c3 -16 -2 -22 -17 -22 -24 0 -35 15 -27
36 9 23 40 13 44 -14z m80 21 c-19 -5 -25 -33 -7 -33 5 0 7 5 3 11 -4 7 -2 10
5 8 7 -3 12 -9 12 -14 0 -15 -33 -19 -41 -4 -13 19 0 39 24 38 16 -1 17 -2 4
-6z m100 -17 c10 -22 8 -24 -14 -22 -25 1 -28 5 -18 30 9 23 19 20 32 -8z m87
11 c12 4 13 -1 6 -36 -1 -2 -7 2 -15 8 -11 9 -15 9 -19 -1 -3 -7 -6 0 -6 17
-1 21 2 26 10 18 6 -6 17 -9 24 -6z m-5348 -42 c0 -8 -4 -12 -9 -9 -5 3 -6 10
-3 15 9 13 12 11 12 -6z m1740 0 c0 -8 -4 -12 -9 -9 -5 3 -6 10 -3 15 9 13 12
11 12 -6z m-1812 -5 c-3 -5 -12 -10 -18 -10 -7 0 -6 4 3 10 19 12 23 12 15 0z
m355 0 c0 -5 -5 -10 -11 -10 -5 0 -7 5 -4 10 3 6 8 10 11 10 2 0 4 -4 4 -10z
m1385 0 c-3 -5 -12 -10 -18 -10 -7 0 -6 4 3 10 19 12 23 12 15 0z m358 -3 c3
-8 -1 -14 -9 -14 -15 0 -18 9 -7 20 9 9 10 9 16 -6z m68 -4 c13 -16 12 -17 -3
-4 -10 7 -18 15 -18 17 0 8 8 3 21 -13z"/>
<path d="M3710 4463 c-55 -9 -121 -36 -161 -65 l-42 -30 49 -27 c78 -42 111
-70 156 -133 23 -32 43 -58 43 -58 0 0 20 26 43 58 45 63 78 91 156 133 l49
27 -42 30 c-65 47 -181 77 -251 65z"/>
<path d="M3242 4280 c-83 -30 -152 -90 -196 -173 -24 -46 -44 -132 -33 -143 3
-3 31 2 62 12 59 17 208 16 248 -1 16 -7 16 -4 6 21 -16 43 -13 191 5 243 9
24 16 47 16 52 0 15 -52 9 -108 -11z"/>
<path d="M4163 4287 c30 -78 39 -218 18 -285 -9 -30 -8 -33 7 -27 39 17 189
17 245 1 30 -9 58 -16 62 -16 4 0 5 21 1 46 -19 143 -148 271 -292 291 -41 5
-47 4 -41 -10z"/>
<path d="M3436 4262 c-26 -51 -39 -143 -27 -204 15 -83 50 -145 126 -219 l67
-66 36 19 c20 10 44 18 54 18 16 0 18 10 18 93 0 182 -60 291 -201 363 -27 13
-51 24 -53 24 -3 0 -12 -12 -20 -28z"/>
<path d="M3990 4259 c-76 -41 -116 -83 -153 -159 -29 -59 -32 -75 -36 -177 -3
-106 -2 -113 16 -113 10 0 36 -9 57 -20 l39 -19 65 67 c92 95 126 171 126 277
0 60 -6 92 -22 128 -11 26 -25 47 -29 47 -4 0 -33 -14 -63 -31z"/>
<path d="M3075 3884 c-22 -8 -43 -18 -48 -23 -15 -15 30 -99 83 -155 74 -78
127 -99 267 -104 103 -4 113 -3 119 14 3 11 13 37 22 58 l16 39 -77 73 c-96
90 -152 114 -265 113 -42 0 -95 -7 -117 -15z"/>
<path d="M4197 3885 c-52 -19 -91 -48 -163 -117 l-61 -60 18 -36 c10 -21 21
-45 24 -55 5 -17 15 -18 118 -15 98 3 119 6 168 30 31 16 75 47 98 70 44 45
97 140 87 157 -23 36 -213 54 -289 26z"/>
<path d="M2901 3743 c-64 -97 -75 -224 -27 -330 15 -34 38 -71 50 -82 l22 -21
24 50 c26 56 89 126 149 166 l41 26 -45 30 c-56 37 -121 110 -148 166 -12 23
-24 42 -28 42 -4 0 -21 -21 -38 -47z"/>
<path d="M4541 3745 c-33 -62 -85 -121 -142 -159 l-49 -33 53 -36 c60 -42 101
-89 138 -160 l25 -49 28 32 c86 103 96 270 23 391 -18 29 -37 54 -42 56 -6 2
-21 -17 -34 -42z"/>
<path d="M3685 3716 c-92 -41 -131 -155 -85 -246 63 -123 247 -123 310 0 75
147 -76 312 -225 246z"/>
<path d="M3269 3497 c-99 -28 -185 -100 -228 -193 -12 -24 -21 -48 -21 -53 0
-14 124 -51 169 -51 55 0 151 28 191 55 65 43 152 135 147 153 -3 9 -12 35
-20 57 l-15 40 -89 2 c-48 1 -109 -4 -134 -10z"/>
<path d="M4014 3494 c-3 -11 -13 -36 -21 -56 -15 -35 -15 -38 8 -65 13 -15 50
-52 83 -81 101 -89 235 -114 361 -67 25 10 45 22 45 26 0 5 -9 29 -21 54 -33
71 -93 131 -165 166 -59 29 -77 33 -175 37 -100 4 -109 3 -115 -14z"/>
<path d="M3526 3260 c-36 -38 -74 -87 -85 -107 -26 -53 -44 -146 -36 -196 10
-65 37 -137 52 -137 28 0 111 50 151 92 24 24 55 68 70 98 23 48 27 70 30 165
l4 110 -54 23 c-29 12 -56 22 -59 22 -4 0 -36 -31 -73 -70z"/>
<path d="M3885 3321 c-6 -5 -27 -14 -49 -21 l-38 -12 4 -112 c5 -130 23 -179
89 -251 45 -48 131 -105 161 -105 35 0 65 151 48 237 -17 82 -44 128 -118 206
-65 66 -79 75 -97 58z"/>
<path d="M3012 3108 c12 -104 96 -221 191 -266 45 -21 147 -44 147 -33 0 3 -7
29 -16 56 -18 59 -21 198 -5 239 11 28 11 29 -21 22 -101 -20 -207 -13 -282
19 -17 8 -19 5 -14 -37z"/>
<path d="M4469 3140 c-36 -21 -155 -33 -220 -21 -34 6 -64 9 -66 7 -2 -2 1
-35 7 -73 11 -67 3 -131 -25 -229 -7 -21 -5 -21 47 -12 147 26 268 149 285
289 6 49 1 56 -28 39z"/>
<path d="M3727 2915 c-35 -55 -107 -120 -164 -148 -24 -12 -43 -25 -43 -29 0
-18 85 -67 145 -83 81 -22 165 -15 238 20 50 24 104 63 96 68 -2 1 -24 12 -49
24 -60 28 -134 95 -166 149 -14 24 -27 44 -27 44 -1 0 -15 -20 -30 -45z"/>
<path d="M750 3741 c0 -16 6 -21 26 -21 33 0 30 33 -4 38 -17 3 -22 -2 -22
-17z"/>
<path d="M886 3744 c-9 -8 -16 -22 -16 -29 0 -18 27 -45 45 -45 18 0 45 27 45
45 0 18 -27 45 -45 45 -7 0 -21 -7 -29 -16z"/>
<path d="M1430 3746 c-28 -35 11 -93 48 -70 35 22 22 84 -18 84 -10 0 -23 -7
-30 -14z"/>
<path d="M1732 3748 c-24 -24 -8 -78 24 -78 17 0 44 28 44 45 0 17 -27 45 -44
45 -6 0 -17 -5 -24 -12z"/>
<path d="M5700 3740 c0 -14 7 -20 23 -20 13 0 26 3 30 6 12 12 -6 34 -29 34
-17 0 -24 -6 -24 -20z"/>
<path d="M5840 3746 c-16 -20 -9 -56 13 -70 39 -24 79 44 41 71 -23 17 -39 16
-54 -1z"/>
<path d="M6386 3744 c-9 -8 -16 -22 -16 -29 0 -18 27 -45 45 -45 18 0 45 27
45 45 0 18 -27 45 -45 45 -7 0 -21 -7 -29 -16z"/>
<path d="M6680 3746 c-28 -35 11 -93 48 -70 35 22 22 84 -18 84 -10 0 -23 -7
-30 -14z"/>
<path d="M940 3585 c0 -8 7 -15 15 -15 8 0 15 7 15 15 0 8 -7 15 -15 15 -8 0
-15 -7 -15 -15z"/>
<path d="M1390 3584 c0 -9 5 -14 12 -12 18 6 21 28 4 28 -9 0 -16 -7 -16 -16z"/>
<path d="M5892 3588 c5 -15 28 -18 29 -3 0 6 -7 12 -17 13 -10 3 -15 -1 -12
-10z"/>
<path d="M6342 3588 c6 -18 28 -21 28 -4 0 9 -7 16 -16 16 -9 0 -14 -5 -12
-12z"/>
<path d="M1247 2809 c-39 -11 -54 -25 -67 -64 -31 -95 89 -167 161 -96 71 72
3 187 -94 160z"/>
<path d="M3320 2318 c-90 -61 -91 -185 -1 -245 113 -76 257 47 206 175 -33 82
-135 117 -205 70z"/>
<path d="M4867 2293 c1 -21 2 -46 2 -55 1 -15 11 -18 55 -18 45 0 58 4 70 22
37 52 6 88 -75 88 l-54 0 2 -37z"/>
<path d="M750 2159 c0 -15 5 -20 22 -17 34 5 37 38 4 38 -20 0 -26 -5 -26 -21z"/>
<path d="M885 2170 c-25 -28 -7 -70 30 -70 37 0 55 42 30 70 -10 11 -23 20
-30 20 -7 0 -20 -9 -30 -20z"/>
<path d="M1435 2174 c-20 -20 -16 -53 8 -68 39 -24 79 44 41 71 -23 17 -29 16
-49 -3z"/>
<path d="M1742 2183 c-22 -8 -34 -41 -22 -63 14 -26 56 -26 70 0 20 38 -9 76
-48 63z"/>
<path d="M5700 2160 c0 -23 31 -27 49 -7 14 17 4 27 -26 27 -16 0 -23 -6 -23
-20z"/>
<path d="M5848 2179 c-11 -6 -18 -22 -18 -39 0 -23 5 -31 25 -36 47 -12 73 36
39 70 -18 19 -23 19 -46 5z"/>
<path d="M6385 2170 c-25 -27 -7 -70 29 -70 36 0 52 34 31 66 -19 29 -36 30
-60 4z"/>
<path d="M6686 2177 c-38 -27 2 -95 42 -71 24 16 28 55 6 71 -10 7 -21 13 -24
13 -3 0 -14 -6 -24 -13z"/>
<path d="M940 2015 c0 -8 7 -15 15 -15 8 0 15 7 15 15 0 8 -7 15 -15 15 -8 0
-15 -7 -15 -15z"/>
<path d="M1390 2015 c0 -8 7 -15 15 -15 8 0 15 7 15 15 0 8 -7 15 -15 15 -8 0
-15 -7 -15 -15z"/>
<path d="M5895 2021 c-7 -12 12 -24 25 -16 11 7 4 25 -10 25 -5 0 -11 -4 -15
-9z"/>
<path d="M6340 2015 c0 -8 7 -15 15 -15 8 0 15 7 15 15 0 8 -7 15 -15 15 -8 0
-15 -7 -15 -15z"/>
<path d="M3150 1845 c-26 -32 13 -81 48 -59 34 22 22 74 -18 74 -10 0 -23 -7
-30 -15z"/>
<path d="M3937 1853 c-12 -12 -7 -50 8 -63 32 -27 82 23 55 55 -13 15 -51 20
-63 8z"/>
<path d="M3480 1845 c0 -8 9 -15 20 -15 11 0 20 7 20 15 0 8 -9 15 -20 15 -11
0 -20 -7 -20 -15z"/>
<path d="M4320 1830 c0 -5 5 -10 11 -10 5 0 7 5 4 10 -3 6 -8 10 -11 10 -2 0
-4 -4 -4 -10z"/>
<path d="M1264 1430 c-12 -4 -31 -20 -42 -35 -45 -56 -37 -137 17 -189 25 -24
31 -26 55 -15 22 10 34 10 59 1 31 -12 33 -11 64 24 59 67 52 155 -16 201 -35
24 -96 30 -137 13z"/>
<path d="M1104 1361 c-44 -27 -87 -122 -48 -107 9 3 37 6 62 6 l47 0 1 60 c0
68 -8 74 -62 41z"/>
<path d="M1484 1320 l1 -60 47 0 c25 0 53 -3 62 -6 40 -15 -3 78 -49 106 -54
33 -61 28 -61 -40z"/>
<path d="M1043 1210 c-129 -78 -42 -276 106 -238 64 16 84 46 85 125 1 60 -2
71 -24 91 -50 47 -114 55 -167 22z"/>
<path d="M1454 1202 l-39 -29 1 -73 c0 -73 1 -74 37 -104 65 -52 153 -36 197
37 75 123 -78 255 -196 169z"/>
<path d="M1295 1158 c-27 -15 -35 -28 -35 -60 0 -35 32 -68 65 -68 61 0 87 81
39 119 -30 24 -41 25 -69 9z"/>
<path d="M1223 973 c-37 -48 -41 -108 -11 -153 51 -77 142 -88 204 -26 54 54
55 119 5 185 -16 21 -27 24 -95 26 -77 2 -78 2 -103 -32z"/>
<path d="M1040 934 c0 -42 49 -99 97 -113 l29 -8 -1 63 0 63 -35 -5 c-19 -3
-47 -1 -62 5 -23 9 -28 8 -28 -5z"/>
<path d="M1484 874 l-1 -62 30 9 c39 11 66 36 83 76 8 18 14 34 14 37 0 2 -28
3 -62 2 l-63 -1 -1 -61z"/>
<path d="M3008 1383 c-25 -27 -55 -67 -67 -90 l-21 -41 45 -26 c25 -15 57 -42
72 -61 l27 -34 56 52 c31 29 64 57 73 62 16 9 16 13 -5 55 -25 49 -100 130
-121 130 -7 0 -33 -21 -59 -47z"/>
<path d="M2753 1214 c-12 -27 -17 -65 -17 -124 0 -73 4 -93 29 -143 49 -99
144 -169 248 -183 l44 -6 16 43 c33 93 29 178 -14 266 -43 89 -148 166 -244
180 -45 6 -45 5 -62 -33z"/>
<path d="M3269 1236 c-85 -30 -187 -121 -174 -154 38 -90 46 -199 20 -272 -8
-23 -15 -44 -15 -46 0 -9 33 -2 87 17 69 27 139 89 178 161 37 68 46 180 20
257 -15 47 -19 51 -48 51 -18 -1 -48 -7 -68 -14z"/>
<path d="M1132 584 c-31 -22 -30 -78 2 -99 64 -42 130 41 76 95 -24 24 -48 25
-78 4z"/>
<path d="M1800 570 c0 -18 5 -21 33 -18 20 2 32 8 32 18 0 10 -12 16 -32 18
-28 3 -33 0 -33 -18z"/>
<path d="M2870 580 c-28 -28 -26 -76 4 -95 64 -42 130 41 76 95 -11 11 -29 20
-40 20 -11 0 -29 -9 -40 -20z"/>
<path d="M3550 570 c0 -17 5 -21 28 -18 16 2 27 9 27 18 0 9 -11 16 -27 18
-23 3 -28 -1 -28 -18z"/>
<path d="M4150 559 c0 -16 5 -20 27 -17 17 2 29 10 31 21 3 13 -3 17 -27 17
-25 0 -31 -4 -31 -21z"/>
<path d="M4284 566 c-9 -23 -1 -48 19 -60 25 -16 52 4 52 40 0 25 -4 29 -33
32 -22 2 -34 -2 -38 -12z"/>
<path d="M4846 577 c-26 -19 -18 -71 12 -75 50 -7 69 46 26 74 -17 12 -23 12
-38 1z"/>
<path d="M5136 574 c-33 -32 -10 -79 36 -72 30 4 38 56 12 75 -23 17 -29 16
-48 -3z"/>
<path d="M5700 560 c0 -23 31 -27 49 -7 14 17 4 27 -26 27 -16 0 -23 -6 -23
-20z"/>
<path d="M5846 577 c-26 -19 -18 -71 12 -75 46 -7 69 40 36 72 -19 19 -25 20
-48 3z"/>
<path d="M6385 570 c-25 -27 -7 -70 29 -70 46 0 57 58 15 80 -23 13 -23 13
-44 -10z"/>
<path d="M6688 579 c-32 -18 -19 -79 16 -79 43 0 61 44 30 74 -18 19 -23 19
-46 5z"/>
<path d="M4345 420 c-3 -6 1 -13 10 -16 19 -8 30 0 20 15 -8 14 -22 14 -30 1z"/>
<path d="M4535 420 c3 -5 8 -10 11 -10 2 0 4 5 4 10 0 6 -5 10 -11 10 -5 0 -7
-4 -4 -10z"/>
<path d="M4795 421 c-7 -12 12 -24 25 -16 11 7 4 25 -10 25 -5 0 -11 -4 -15
-9z"/>
<path d="M5895 419 c-10 -15 1 -23 20 -15 9 3 13 10 10 16 -8 13 -22 13 -30
-1z"/>
<path d="M6080 419 c0 -5 5 -7 10 -4 6 3 10 8 10 11 0 2 -4 4 -10 4 -5 0 -10
-5 -10 -11z"/>
<path d="M6340 415 c0 -8 7 -15 15 -15 8 0 15 7 15 15 0 8 -7 15 -15 15 -8 0
-15 -7 -15 -15z"/>
</g>
</svg>
